<?xml version="1.0" standalone="no"?>
<!DOCTYPE svg PUBLIC "-//W3C//DTD SVG 20010904//EN"
 "http://www.w3.org/TR/2001/REC-SVG-20010904/DTD/svg10.dtd">
<svg version="1.0" xmlns="http://www.w3.org/2000/svg"
 width="202.000000pt" height="202.000000pt" viewBox="0 0 202.000000 202.000000"
 preserveAspectRatio="xMidYMid meet">
<metadata>
Created by potrace 1.11, written by Peter Selinger 2001-2013
</metadata>
<g transform="translate(0.000000,202.000000) scale(0.100000,-0.100000)"
fill="#000000" stroke="none">
<path d="M1480 1626 c0 -10 -25 -14 -97 -19 -84 -4 -114 -11 -208 -48 -131
-50 -255 -117 -309 -165 -21 -18 -42 -34 -47 -34 -5 0 -46 -36 -91 -80 l-81
-80 -319 0 -318 0 0 -75 0 -75 105 0 105 0 0 -220 0 -220 34 0 c32 0 34 -2 38
-45 7 -55 48 -118 102 -154 37 -24 45 -25 175 -25 134 0 138 1 246 40 110 41
196 84 319 159 77 47 75 38 51 235 -14 111 -25 163 -25 117 0 -14 -60 -209
-90 -295 l-12 -33 -66 3 -66 3 -47 145 c-27 80 -48 155 -49 168 0 39 -20 14
-20 -26 0 -20 -7 -86 -15 -147 -8 -60 -15 -118 -15 -127 0 -16 -12 -18 -110
-18 -70 0 -110 4 -110 10 0 6 7 43 15 83 12 63 84 441 89 475 3 17 63 77 105
106 187 123 317 190 450 233 81 25 229 42 239 27 4 -5 42 -7 85 -4 l78 5 -33
31 c-61 56 -108 78 -108 50z m-950 -583 c0 -5 -18 -28 -40 -53 l-39 -45 -1 53
0 52 40 0 c22 0 40 -3 40 -7z"/>
<path d="M1275 1490 c-38 -10 -100 -29 -136 -43 -88 -33 -274 -131 -315 -165
-17 -15 -50 -38 -73 -52 -23 -13 -41 -27 -41 -32 0 -4 43 -9 96 -10 l97 -3 38
-118 c20 -65 41 -136 44 -159 5 -29 10 -37 16 -27 5 8 9 23 9 34 0 11 19 77
41 147 l41 128 118 0 118 0 6 -27 c3 -16 20 -111 37 -213 40 -235 53 -264 141
-308 62 -31 69 -32 184 -32 155 0 210 16 270 75 l44 44 0 76 0 75 -41 29 c-51
37 -77 45 -212 67 -71 11 -116 24 -130 36 l-22 18 24 20 c13 11 36 20 53 20
32 0 88 -25 88 -40 0 -6 44 -10 105 -10 100 0 105 1 105 21 0 12 -10 39 -22
60 -18 33 -31 42 -82 58 -34 11 -90 23 -124 26 l-64 7 7 78 c6 66 4 83 -13
116 -26 50 -56 78 -112 103 -59 27 -196 28 -295 1z m232 -621 c6 -6 66 -19
133 -29 129 -20 150 -29 150 -65 0 -43 -106 -50 -146 -10 -23 23 -31 25 -130
25 l-105 0 28 38 c40 54 51 60 70 41z"/>
</g>
</svg>
